<?xml version="1.0" encoding="UTF-8"?>
<svg width="256px" height="256px" viewBox="0 0 256 256" version="1.1" xmlns="http://www.w3.org/2000/svg" xmlns:xlink="http://www.w3.org/1999/xlink">
    <!-- Generator: Sketch 46.2 (44496) - http://www.bohemiancoding.com/sketch -->
    <title>bt-exit</title>
    <desc>Created with Sketch.</desc>
    <defs></defs>
    <g id="F.O" stroke="none" stroke-width="1" fill="none" fill-rule="evenodd">
        <g id="Artboard" transform="translate(-539.000000, -88.000000)" fill-rule="nonzero" fill="#33A852">
            <g id="bt-exit" transform="translate(539.000000, 88.000000)">
                <path d="M128,0 C57.3045,0 0,57.3045 0,128 C0,198.6955 57.3045,256 128,256 C198.6955,256 256,198.6955 256,128 C256,57.3045 198.6955,0 128,0 Z M128,248 C61.7238889,248 8,194.276111 8,128 C8,61.7238889 61.7238889,8 128,8 C194.276111,8 248,61.7238889 248,128 C248,194.276111 194.276111,248 128,248 Z" id="Shape-Copy"></path>
                <path d="M180.211386,64 C182.423687,64 184.219178,65.792 184.219178,68 L184.219178,188 C184.219178,190.208 182.423687,192 180.211386,192 L116.086714,192 C113.874413,192 112.078922,190.208 112.078922,188 L112.078922,148 L120.094506,148 L120.094506,184 L176.203594,184 L176.203594,72 L120.094506,72 L120.094506,108 L112.078922,108 L112.078922,68 C112.078922,65.792 113.874413,64 116.086714,64 L180.211386,64 Z M152.156842,124 L152.156842,124 L152.156842,132 L85.6836039,132 L102.889055,149.172 L97.222037,154.828 L73.175285,130.828 C71.6082383,129.264 71.6082383,126.736 73.175285,125.172 L97.222037,101.172 L102.889055,106.828 L85.6836039,124 L152.156842,124 Z" id="Shape" stroke="#33A852" stroke-width="2"></path>
            </g>
        </g>
    </g>
</svg>