<?xml version="1.0" encoding="UTF-8"?>
<svg width="8px" height="17px" viewBox="0 0 8 17" version="1.1" xmlns="http://www.w3.org/2000/svg" xmlns:xlink="http://www.w3.org/1999/xlink">
    <!-- Generator: Sketch 46.2 (44496) - http://www.bohemiancoding.com/sketch -->
    <title>ico_</title>
    <desc>Created with Sketch.</desc>
    <defs></defs>
    <g id="Symbols" stroke="none" stroke-width="1" fill="none" fill-rule="evenodd">
        <g id="item-1" transform="translate(-171.000000, -12.000000)" fill="#D70B52">
            <g id="ico_">
                <path d="M178.272727,26.1038961 L178.272727,27.5584416 C178.272727,27.7554122 178.200758,27.9258651 178.056818,28.0698052 C177.912878,28.2137453 177.742425,28.2857143 177.545455,28.2857143 L171.727273,28.2857143 C171.530302,28.2857143 171.359849,28.2137453 171.215909,28.0698052 C171.071969,27.9258651 171,27.7554122 171,27.5584416 L171,26.1038961 C171,25.9069254 171.071969,25.7364726 171.215909,25.5925325 C171.359849,25.4485924 171.530302,25.3766234 171.727273,25.3766234 L172.454545,25.3766234 L172.454545,21.012987 L171.727273,21.012987 C171.530302,21.012987 171.359849,20.941018 171.215909,20.7970779 C171.071969,20.6531378 171,20.482685 171,20.2857143 L171,18.8311688 C171,18.6341981 171.071969,18.4637453 171.215909,18.3198052 C171.359849,18.1758651 171.530302,18.1038961 171.727273,18.1038961 L176.090909,18.1038961 C176.28788,18.1038961 176.458333,18.1758651 176.602273,18.3198052 C176.746213,18.4637453 176.818182,18.6341981 176.818182,18.8311688 L176.818182,25.3766234 L177.545455,25.3766234 C177.742425,25.3766234 177.912878,25.4485924 178.056818,25.5925325 C178.200758,25.7364726 178.272727,25.9069254 178.272727,26.1038961 Z M176.818182,13.012987 L176.818182,15.1948052 C176.818182,15.3917759 176.746213,15.5622287 176.602273,15.7061688 C176.458333,15.8501089 176.28788,15.9220779 176.090909,15.9220779 L173.181818,15.9220779 C172.984848,15.9220779 172.814395,15.8501089 172.670455,15.7061688 C172.526514,15.5622287 172.454545,15.3917759 172.454545,15.1948052 L172.454545,13.012987 C172.454545,12.8160163 172.526514,12.6455635 172.670455,12.5016234 C172.814395,12.3576833 172.984848,12.2857143 173.181818,12.2857143 L176.090909,12.2857143 C176.28788,12.2857143 176.458333,12.3576833 176.602273,12.5016234 C176.746213,12.6455635 176.818182,12.8160163 176.818182,13.012987 Z"></path>
            </g>
        </g>
    </g>
</svg>