<?xml version="1.0" encoding="UTF-8"?>
<svg width="23px" height="44px" viewBox="0 0 23 44" version="1.1" xmlns="http://www.w3.org/2000/svg" xmlns:xlink="http://www.w3.org/1999/xlink">
    <!-- Generator: Sketch 46.2 (44496) - http://www.bohemiancoding.com/sketch -->
    <title>ico-info</title>
    <desc>Created with Sketch.</desc>
    <defs></defs>
    <g id="Page-1" stroke="none" stroke-width="1" fill="none" fill-rule="evenodd">
        <g id="2-Création-d’un-compte" transform="translate(-1588.000000, -998.000000)" stroke="#FFFFFF" stroke-width="2.2" fill-rule="nonzero">
            <g id="footer" transform="translate(0.000000, 980.000000)">
                <g id="guide" transform="translate(1560.000000, 0.000000)">
                    <g id="ico-info" transform="translate(32.000000, 20.000000)">
                        <path d="M17.1907603,33.1605318 L16.000018,38.019641 L15.4703636,38.2283293 C13.9495805,38.8275305 12.713565,39.2921174 11.7820812,39.6149936 C10.7526193,39.9725545 9.57827936,40.147619 8.25949704,40.147619 C6.16923493,40.147619 4.47700609,39.6172688 3.23202019,38.5271839 C1.97025518,37.4179994 1.32368901,35.9769371 1.32368901,34.279903 C1.32368901,33.6885169 1.36508874,33.0879801 1.44842211,32.4825026 C1.53121305,31.8853047 1.66132304,31.2191315 1.85052297,30.4334085 L3.74869489,23.7273862 C3.91665629,23.088635 4.0541578,22.5022679 4.16329265,21.9560509 C4.26467542,21.4587613 4.31438186,21.0033162 4.31438186,20.5996626 C4.31438186,20.0127829 4.21864641,19.6898294 4.12408784,19.5997683 C4.0210789,19.5019438 3.59095995,19.3943183 2.84544086,19.3943183 C2.46587057,19.3943183 2.06475229,19.4558018 1.64333801,19.5801717 C1.17217732,19.7192025 0.749890788,19.8584553 0.380988338,19.994656 L-1.56209939,20.7120543 L-0.425369103,16.0815951 L0.0948479605,15.8701555 C1.3744982,15.350048 2.59328618,14.9068183 3.75603213,14.5394741 C5.00052486,14.1452389 6.18883806,13.9461593 7.32480375,13.9461593 C9.40691384,13.9461593 11.0792681,14.469277 12.2933617,15.550388 C13.5243349,16.6473363 14.1498816,18.094148 14.1498816,19.8148507 C14.1498816,20.1599144 14.1134092,20.7153443 14.0425958,21.4596902 C13.9677126,22.2673732 13.8269424,23.0156974 13.6243712,23.6859796 L11.7273174,30.3904836 C11.5819487,30.8939743 11.451214,31.4722372 11.3360988,32.1280016 C11.2239412,32.7430644 11.1686334,33.2145966 11.1686334,33.4960664 C11.1686334,34.0872677 11.2669472,34.3871578 11.3551648,34.4586691 C11.5193342,34.5907597 11.9846122,34.699135 12.7395113,34.699135 C13.0920716,34.699135 13.520062,34.6329602 14.0147982,34.4968626 C14.5473137,34.3499613 14.9175003,34.2262831 15.1079212,34.1370099 L17.1907603,33.1605318 Z M17.1555556,5.18854464 C17.1555556,6.66654293 16.5838417,7.95451934 15.4790569,8.97705728 C14.3903538,9.99092525 13.0575532,10.5061771 11.5367857,10.5061771 C10.0148553,10.5061771 8.68117265,9.99290109 7.58301974,8.98179026 C6.46723287,7.95582188 5.88903065,6.66687747 5.88903065,5.18854464 C5.88903065,3.71450268 6.46544784,2.42575882 7.57873222,1.3895092 C8.6755067,0.370226117 10.0124326,-0.147619048 11.5367857,-0.147619048 C13.0582713,-0.147619048 14.3925264,0.372027554 15.4813575,1.39242732 C16.5858371,2.42690485 17.1555556,3.71463479 17.1555556,5.18854464 Z" id="Shape"></path>
                    </g>
                </g>
            </g>
        </g>
    </g>
</svg>