<?xml version="1.0" encoding="UTF-8"?>
<svg width="40px" height="40px" viewBox="0 0 40 40" version="1.1" xmlns="http://www.w3.org/2000/svg" xmlns:xlink="http://www.w3.org/1999/xlink">
    <!-- Generator: Sketch 46.2 (44496) - http://www.bohemiancoding.com/sketch -->
    <title>ico-speak</title>
    <desc>Created with Sketch.</desc>
    <defs></defs>
    <g id="Page-1" stroke="none" stroke-width="1" fill="none" fill-rule="evenodd">
        <g id="2-Création-d’un-compte" transform="translate(-1700.000000, -1000.000000)" fill-rule="nonzero" fill="#FFFFFF">
            <g id="footer" transform="translate(0.000000, 980.000000)">
                <g id="lang-copy" transform="translate(1680.000000, 0.000000)">
                    <g id="ico-speak" transform="translate(20.000000, 20.000000)">
                        <path d="M25.78125,12.890625 C25.78125,5.78273438 19.9985156,0 12.890625,0 C5.78273438,0 0,5.78273438 0,12.890625 C0,16.1485937 0.6059375,19.3877344 1.191875,22.5201562 C1.75820313,25.5475781 2.34375,28.678125 2.34375,31.71875 C2.34375,36.285 6.02367188,40 10.546875,40 C15.0700781,40 18.75,36.285 18.75,31.71875 C18.75,31.1367969 18.6892969,30.5061719 18.5832813,29.9885937 C18.0114844,27.1942969 20.0695312,23.9417969 22.0057031,22.005625 C24.4403906,19.5709375 25.78125,16.3338281 25.78125,12.890625 Z M16.2871875,30.4585156 C16.3617188,30.8228906 16.40625,31.2939844 16.40625,31.71875 C16.40625,34.9926563 13.7777344,37.65625 10.546875,37.65625 C7.31601563,37.65625 4.6875,34.9926563 4.6875,31.71875 C4.6875,28.4607813 4.0815625,25.2216406 3.495625,22.0892188 C2.92929687,19.0617969 2.34375,15.93125 2.34375,12.890625 C2.34375,7.07507813 7.07507813,2.34375 12.890625,2.34375 C18.7061719,2.34375 23.4375,7.07507813 23.4375,12.890625 C23.4375,15.7078125 22.3404688,18.3563281 20.3484375,20.3483594 C17.8883594,22.8085156 15.5295312,26.7563281 16.2871875,30.4585156 Z" id="Shape"></path>
                        <path d="M14.4232031,4.82789063 C9.273125,3.8846875 4.6875,7.82453125 4.6875,12.890625 C4.6875,15.7115625 5.226875,18.578125 5.79921875,21.6197656 C5.98304687,22.5963281 6.173125,23.6060938 6.34367188,24.6121875 C6.6890625,26.6476562 8.41359375,28.125 10.444375,28.125 C12.4185937,28.125 14.1324219,26.72 14.5195312,24.7842187 C14.5224219,24.4239844 15.9335156,20.6414844 13.0014844,17.065 C11.5235156,15.2621875 9.37796875,14.1857813 7.0646875,14.0725 C7.04289063,13.6748438 7.03125,13.2810156 7.03125,12.890625 C7.03125,9.35804688 10.2157031,6.44015625 14.0010156,7.13328125 C18.5996094,7.97546875 20.3558594,13.7102344 17.0340625,17.0348438 L18.6921094,18.6914062 C23.3051562,14.0742969 20.936875,6.02078125 14.4232031,4.82789063 Z M11.1889844,18.5508594 C13.3392187,21.1736719 12.2289844,23.9232813 12.22125,24.3245313 C12.0524219,25.1685938 11.3051562,25.78125 10.444375,25.78125 C9.56070312,25.78125 8.80796875,25.1246875 8.65453125,24.2202344 C8.48039062,23.1933594 8.28828125,22.1730469 8.10132812,21.1795313 C7.79460937,19.5495313 7.49742187,17.9700781 7.294375,16.4405469 C8.8134375,16.6048438 10.2073437,17.3535156 11.1889844,18.5508594 Z" id="Shape"></path>
                        <rect id="Rectangle-path" x="28.203125" y="18.75" width="11.796875" height="2.34375"></rect>
                        <rect id="Rectangle-path" transform="translate(34.060574, 31.639634) rotate(-63.434949) translate(-34.060574, -31.639634) " x="32.8887741" y="26.3993243" width="2.34360063" height="10.4806189"></rect>
                        <rect id="Rectangle-path" transform="translate(34.062718, 8.203157) rotate(-26.565051) translate(-34.062718, -8.203157) " x="28.8224087" y="7.03135662" width="10.4806189" height="2.34360063"></rect>
                    </g>
                </g>
            </g>
        </g>
    </g>
</svg>