<?xml version="1.0" encoding="UTF-8"?>
<svg width="16px" height="16px" viewBox="0 0 16 16" version="1.1" xmlns="http://www.w3.org/2000/svg" xmlns:xlink="http://www.w3.org/1999/xlink">
    <!-- Generator: Sketch 46.2 (44496) - http://www.bohemiancoding.com/sketch -->
    <title>ico_ok</title>
    <desc>Created with Sketch.</desc>
    <defs></defs>
    <g id="Symbols" stroke="none" stroke-width="1" fill="none" fill-rule="evenodd">
        <g id="item-1" transform="translate(-133.000000, -12.000000)" fill="#33A852">
            <path d="M141,12 C142.44086,12 143.774194,12.3602152 145,13.0806452 C146.225806,13.8010751 147.198925,14.7741935 147.919355,16 C148.639785,17.2258065 149,18.5591396 149,20 C149,21.4408604 148.639785,22.7741935 147.919355,24 C147.198925,25.2258065 146.225806,26.1989249 145,26.9193548 C143.774194,27.6397848 142.44086,28 141,28 C139.55914,28 138.225806,27.6397848 137,26.9193548 C135.774194,26.1989249 134.801075,25.2258065 134.080645,24 C133.360215,22.7741935 133,21.4408604 133,20 C133,18.5591396 133.360215,17.2258065 134.080645,16 C134.801075,14.7741935 135.774194,13.8010751 137,13.0806452 C138.225806,12.3602152 139.55914,12 141,12 Z M141,13.5483871 C139.83871,13.5483871 138.763441,13.8387097 137.774194,14.4193548 C136.784946,15 136,15.7849461 135.419355,16.7741935 C134.83871,17.763441 134.548387,18.8387097 134.548387,20 C134.548387,21.1612903 134.83871,22.236559 135.419355,23.2258065 C136,24.2150539 136.784946,25 137.774194,25.5806452 C138.763441,26.1612903 139.83871,26.4516129 141,26.4516129 C142.16129,26.4516129 143.236559,26.1612903 144.225806,25.5806452 C145.215054,25 146,24.2150539 146.580645,23.2258065 C147.16129,22.236559 147.451613,21.1612903 147.451613,20 C147.451613,18.8387097 147.16129,17.763441 146.580645,16.7741935 C146,15.7849461 145.215054,15 144.225806,14.4193548 C143.236559,13.8387097 142.16129,13.5483871 141,13.5483871 Z M145.516129,17.7419355 C145.602151,17.8279572 145.645161,17.9247313 145.645161,18.0322581 C145.645161,18.1397848 145.602151,18.2258065 145.516129,18.2903226 L139.967742,23.8064516 C139.88172,23.8924733 139.784946,23.9354839 139.677419,23.9354839 C139.569893,23.9354839 139.483871,23.8924733 139.419355,23.8064516 L136.483871,20.8709677 C136.397849,20.7849461 136.354839,20.6881719 136.354839,20.5806452 C136.354839,20.4731184 136.397849,20.3870968 136.483871,20.3225806 L137.225806,19.5806452 C137.290323,19.516129 137.376344,19.483871 137.483871,19.483871 C137.591398,19.483871 137.688172,19.516129 137.774194,19.5806452 L139.677419,21.5483871 L144.258065,17 C144.322581,16.9354839 144.408602,16.9032258 144.516129,16.9032258 C144.623656,16.9032258 144.72043,16.9462364 144.806452,17.0322581 L145.516129,17.7419355 Z" id="ico_ok"></path>
        </g>
    </g>
</svg>