<?xml version="1.0" encoding="UTF-8"?>
<svg width="80px" height="80px" viewBox="0 0 80 80" version="1.1" xmlns="http://www.w3.org/2000/svg" xmlns:xlink="http://www.w3.org/1999/xlink">
    <!-- Generator: Sketch 46.2 (44496) - http://www.bohemiancoding.com/sketch -->
    <title>bt_previous</title>
    <desc>Created with Sketch.</desc>
    <defs>
        <circle id="path-1" cx="24" cy="24" r="24"></circle>
        <filter x="-22.9%" y="-14.6%" width="145.8%" height="145.8%" filterUnits="objectBoundingBox" id="filter-2">
            <feOffset dx="0" dy="4" in="SourceAlpha" result="shadowOffsetOuter1"></feOffset>
            <feGaussianBlur stdDeviation="3" in="shadowOffsetOuter1" result="shadowBlurOuter1"></feGaussianBlur>
            <feColorMatrix values="0 0 0 0 0.501960784   0 0 0 0 0.274509804   0 0 0 0 0.592156863  0 0 0 0.3 0" type="matrix" in="shadowBlurOuter1"></feColorMatrix>
        </filter>
    </defs>
    <g id="F.O" stroke="none" stroke-width="1" fill="none" fill-rule="evenodd">
        <g id="1-Home" transform="translate(-40.000000, -450.000000)">
            <g id="footer" transform="translate(0.000000, 450.000000)">
                <g id="bt_previous" transform="translate(40.000000, 0.000000)">
                    <circle id="Oval" fill="#EAEAEA" cx="40" cy="40" r="40"></circle>
                    <g id="ico-prev" transform="translate(16.000000, 16.000000)">
                        <g id="Oval-Copy">
                            <use fill="black" fill-opacity="1" filter="url(#filter-2)" xlink:href="#path-1"></use>
                            <use fill="#FFFFFF" fill-rule="evenodd" xlink:href="#path-1"></use>
                        </g>
                        <g id="next" transform="translate(24.000000, 24.500000) rotate(-180.000000) translate(-24.000000, -24.500000) translate(8.000000, 13.000000)" fill-rule="nonzero" fill="#D70B52">
                            <path d="M21.205,1.007 C20.776,0.563 20.062,0.563 19.618,1.007 C19.189,1.436 19.189,2.15 19.618,2.578 L27.665,10.625 L1.111,10.625 C0.492,10.626 0,11.118 0,11.737 C0,12.356 0.492,12.864 1.111,12.864 L27.665,12.864 L19.618,20.896 C19.189,21.34 19.189,22.055 19.618,22.483 C20.062,22.927 20.777,22.927 21.205,22.483 L31.157,12.531 C31.601,12.102 31.601,11.388 31.157,10.96 L21.205,1.007 Z" id="Shape"></path>
                        </g>
                    </g>
                </g>
            </g>
        </g>
    </g>
</svg>