<?xml version="1.0" encoding="UTF-8"?>
<svg width="256px" height="256px" viewBox="0 0 256 256" version="1.1" xmlns="http://www.w3.org/2000/svg" xmlns:xlink="http://www.w3.org/1999/xlink">
    <!-- Generator: Sketch 46.2 (44496) - http://www.bohemiancoding.com/sketch -->
    <title>bt-change-theme</title>
    <desc>Created with Sketch.</desc>
    <defs></defs>
    <g id="F.O" stroke="none" stroke-width="1" fill="none" fill-rule="evenodd">
        <g id="Artboard" transform="translate(-869.000000, -112.000000)" fill-rule="nonzero" fill="#804697">
            <g id="bt-change-theme" transform="translate(869.000000, 112.000000)">
                <path d="M128,0 C57.3045,0 0,57.3045 0,128 C0,198.6955 57.3045,256 128,256 C198.6955,256 256,198.6955 256,128 C256,57.3045 198.6955,0 128,0 Z M128,248 C61.7238889,248 8,194.276111 8,128 C8,61.7238889 61.7238889,8 128,8 C194.276111,8 248,61.7238889 248,128 C248,194.276111 194.276111,248 128,248 Z" id="Shape-Copy"></path>
                <g id="switch" transform="translate(64.000000, 64.000000)">
                    <path d="M102.686584,9.64238411 L87.0547257,9.64238411 L90.9060531,5.7995585 C92.2370265,4.47152318 92.2370265,2.32406181 90.9060531,0.99602649 C89.5750796,-0.33200883 87.4228673,-0.33200883 86.0918938,0.99602649 L76.4635752,10.6313466 C75.8122478,11.2812362 75.4724248,12.1289183 75.4724248,13.0331126 C75.4724248,13.9373068 75.8405664,14.784989 76.4635752,15.4348786 L86.1202124,25.0701987 C86.7715398,25.7200883 87.6494159,26.0591611 88.527292,26.0591611 C89.4051681,26.0591611 90.2547257,25.7200883 90.9343717,25.0701987 C92.2653451,23.7421634 92.2653451,21.594702 90.9343717,20.2666667 L87.0830442,16.4238411 L102.714903,16.4238411 C112.881274,16.4238411 121.121982,24.6746137 121.121982,34.790287 L121.121982,46.1774834 C121.121982,48.0423841 122.651186,49.5682119 124.520212,49.5682119 C126.389239,49.5682119 127.918442,48.0423841 127.918442,46.1774834 L127.918442,34.790287 C127.918442,20.9165563 116.591009,9.64238411 102.686584,9.64238411 Z" id="Shape" stroke="#804697" stroke-width="2"></path>
                    <path d="M124.265345,65.2503311 L68.4494159,65.2503311 C66.5803894,65.2503311 65.0511858,66.7761589 65.0511858,68.6410596 L65.0511858,124.333775 C65.0511858,126.198675 66.5803894,127.724503 68.4494159,127.724503 L124.265345,127.724503 C126.134372,127.724503 127.663575,126.198675 127.663575,124.333775 L127.663575,68.6410596 C127.663575,66.7479029 126.134372,65.2503311 124.265345,65.2503311 Z M120.867115,120.943046 L71.847646,120.943046 L71.847646,72.0317881 L120.867115,72.0317881 L120.867115,120.943046 L120.867115,120.943046 Z" id="Shape" stroke="#804697" stroke-width="2"></path>
                    <path d="M41.8865841,102.661369 C40.5556106,101.333333 38.4033982,101.333333 37.0724248,102.661369 C35.7414513,103.989404 35.7414513,106.136865 37.0724248,107.464901 L40.9237522,111.307726 L25.2918938,111.307726 C15.1255221,111.307726 6.88481416,103.056954 6.88481416,92.9412804 L6.88481416,81.5540839 C6.88481416,79.6891832 5.35561062,78.1633554 3.48658407,78.1633554 C1.61755752,78.1633554 0.0883539823,79.6891832 0.0883539823,81.5540839 L0.0883539823,92.9412804 C0.0883539823,106.815011 11.387469,118.089183 25.2918938,118.089183 L40.9237522,118.089183 L37.0724248,121.932009 C35.7414513,123.260044 35.7414513,125.407506 37.0724248,126.735541 C37.7237522,127.38543 38.6016283,127.724503 39.4795044,127.724503 C40.3573805,127.724503 41.2069381,127.38543 41.8865841,126.735541 L51.5432212,117.100221 C52.8741947,115.772185 52.8741947,113.624724 51.5432212,112.296689 L41.8865841,102.661369 Z" id="Shape" stroke="#804697" stroke-width="2"></path>
                    <path d="M3.74145133,6.78852097 C4.64764602,6.78852097 5.52552212,6.42119205 6.14853097,5.7995585 C6.77153982,5.17792494 7.13968142,4.30198675 7.13968142,3.39779249 C7.13968142,2.5218543 6.77153982,1.61766004 6.14853097,0.99602649 C5.52552212,0.374392936 4.64764602,0.00706401766 3.74145133,0.00706401766 C2.83525664,0.00706401766 1.95738053,0.374392936 1.33437168,0.99602649 C0.711362832,1.61766004 0.343221239,2.49359823 0.343221239,3.39779249 C0.343221239,4.30198675 0.711362832,5.17792494 1.33437168,5.7995585 C1.98569912,6.42119205 2.83525664,6.78852097 3.74145133,6.78852097 Z" id="Shape"></path>
                    <path d="M31.6635752,6.78852097 C33.5326018,6.78852097 35.0618053,5.26269316 35.0618053,3.39779249 C35.0618053,1.53289183 33.5326018,0.00706401766 31.6635752,0.00706401766 C29.7945487,0.00706401766 28.2653451,1.53289183 28.2653451,3.39779249 C28.2653451,5.26269316 29.7662301,6.78852097 31.6635752,6.78852097 Z" id="Shape"></path>
                    <path d="M17.7025133,6.78852097 C19.5715398,6.78852097 21.1007434,5.26269316 21.1007434,3.39779249 C21.1007434,1.53289183 19.5715398,0.00706401766 17.7025133,0.00706401766 C15.8334867,0.00706401766 14.3042832,1.53289183 14.3042832,3.39779249 C14.3042832,5.26269316 15.8334867,6.78852097 17.7025133,6.78852097 Z" id="Shape"></path>
                    <path d="M45.5963186,6.78852097 C47.4653451,6.78852097 48.9945487,5.26269316 48.9945487,3.39779249 C48.9945487,1.53289183 47.4653451,0.00706401766 45.5963186,0.00706401766 C43.727292,0.00706401766 42.1980885,1.53289183 42.1980885,3.39779249 C42.1980885,5.26269316 43.727292,6.78852097 45.5963186,6.78852097 Z" id="Shape"></path>
                    <path d="M59.5573805,0.00706401766 C58.6795044,0.00706401766 57.7733097,0.374392936 57.1503009,0.99602649 C56.527292,1.61766004 56.1591504,2.49359823 56.1591504,3.39779249 C56.1591504,4.30198675 56.527292,5.17792494 57.1503009,5.7995585 C57.7733097,6.42119205 58.6511858,6.78852097 59.5573805,6.78852097 C60.4635752,6.78852097 61.3414513,6.42119205 61.9644602,5.7995585 C62.587469,5.17792494 62.9556106,4.30198675 62.9556106,3.39779249 C62.9556106,2.49359823 62.587469,1.61766004 61.9644602,0.99602649 C61.3414513,0.374392936 60.4635752,0.00706401766 59.5573805,0.00706401766 Z" id="Shape"></path>
                    <path d="M59.5573805,41.7977925 C57.688354,41.7977925 56.1591504,43.3236203 56.1591504,45.188521 C56.1591504,47.0534216 57.688354,48.5792494 59.5573805,48.5792494 C61.4264071,48.5792494 62.9556106,47.0534216 62.9556106,45.188521 C62.9556106,43.2953642 61.4547257,41.7977925 59.5573805,41.7977925 Z" id="Shape"></path>
                    <path d="M59.5573805,27.8675497 C57.688354,27.8675497 56.1591504,29.3933775 56.1591504,31.2582781 C56.1591504,33.1231788 57.688354,34.6490066 59.5573805,34.6490066 C61.4264071,34.6490066 62.9556106,33.1231788 62.9556106,31.2582781 C62.9556106,29.3651214 61.4547257,27.8675497 59.5573805,27.8675497 Z" id="Shape"></path>
                    <path d="M59.5573805,13.9373068 C57.688354,13.9373068 56.1591504,15.4631347 56.1591504,17.3280353 C56.1591504,19.192936 57.688354,20.7187638 59.5573805,20.7187638 C61.4264071,20.7187638 62.9556106,19.192936 62.9556106,17.3280353 C62.9556106,15.4631347 61.4547257,13.9373068 59.5573805,13.9373068 Z" id="Shape"></path>
                    <path d="M59.5573805,55.6997792 C58.6511858,55.6997792 57.7733097,56.0671082 57.1503009,56.6887417 C56.527292,57.3103753 56.1591504,58.1863135 56.1591504,59.0905077 C56.1591504,59.9664459 56.527292,60.8706402 57.1503009,61.4922737 C57.7733097,62.1139073 58.6511858,62.4812362 59.5573805,62.4812362 C60.4635752,62.4812362 61.3414513,62.1139073 61.9644602,61.4922737 C62.587469,60.8706402 62.9556106,59.994702 62.9556106,59.0905077 C62.9556106,58.1863135 62.587469,57.3103753 61.9644602,56.6887417 C61.3417345,56.0671082 60.4635752,55.6997792 59.5573805,55.6997792 Z" id="Shape"></path>
                    <path d="M45.5963186,62.4812362 C47.4653451,62.4812362 48.9945487,60.9554084 48.9945487,59.0905077 C48.9945487,57.2256071 47.4653451,55.6997792 45.5963186,55.6997792 C43.727292,55.6997792 42.1980885,57.2256071 42.1980885,59.0905077 C42.1980885,60.9836645 43.727292,62.4812362 45.5963186,62.4812362 Z" id="Shape"></path>
                    <path d="M31.6635752,62.4812362 C33.5326018,62.4812362 35.0618053,60.9554084 35.0618053,59.0905077 C35.0618053,57.2256071 33.5326018,55.6997792 31.6635752,55.6997792 C29.7945487,55.6997792 28.2653451,57.2256071 28.2653451,59.0905077 C28.2653451,60.9836645 29.7662301,62.4812362 31.6635752,62.4812362 Z" id="Shape"></path>
                    <path d="M17.7025133,62.4812362 C19.5715398,62.4812362 21.1007434,60.9554084 21.1007434,59.0905077 C21.1007434,57.2256071 19.5715398,55.6997792 17.7025133,55.6997792 C15.8334867,55.6997792 14.3042832,57.2256071 14.3042832,59.0905077 C14.3042832,60.9836645 15.8334867,62.4812362 17.7025133,62.4812362 Z" id="Shape"></path>
                    <path d="M3.74145133,62.4812362 C4.64764602,62.4812362 5.52552212,62.1139073 6.14853097,61.4922737 C6.77153982,60.8706402 7.13968142,59.994702 7.13968142,59.0905077 C7.13968142,58.1863135 6.77153982,57.3103753 6.14853097,56.6887417 C5.52552212,56.0671082 4.64764602,55.6997792 3.74145133,55.6997792 C2.83525664,55.6997792 1.95738053,56.0671082 1.33437168,56.6887417 C0.711362832,57.3103753 0.343221239,58.1863135 0.343221239,59.0905077 C0.343221239,59.9664459 0.711362832,60.8706402 1.33437168,61.4922737 C1.98569912,62.1139073 2.83525664,62.4812362 3.74145133,62.4812362 Z" id="Shape"></path>
                    <path d="M3.74145133,48.5792494 C5.61047788,48.5792494 7.13968142,47.0534216 7.13968142,45.188521 C7.13968142,43.3236203 5.61047788,41.7977925 3.74145133,41.7977925 C1.87242478,41.7977925 0.343221239,43.3236203 0.343221239,45.188521 C0.343221239,47.0534216 1.87242478,48.5792494 3.74145133,48.5792494 Z" id="Shape"></path>
                    <path d="M3.74145133,34.6490066 C5.61047788,34.6490066 7.13968142,33.1231788 7.13968142,31.2582781 C7.13968142,29.3933775 5.61047788,27.8675497 3.74145133,27.8675497 C1.87242478,27.8675497 0.343221239,29.3933775 0.343221239,31.2582781 C0.343221239,33.1231788 1.87242478,34.6490066 3.74145133,34.6490066 Z" id="Shape"></path>
                    <path d="M3.74145133,20.7187638 C5.61047788,20.7187638 7.13968142,19.192936 7.13968142,17.3280353 C7.13968142,15.4631347 5.61047788,13.9373068 3.74145133,13.9373068 C1.87242478,13.9373068 0.343221239,15.4631347 0.343221239,17.3280353 C0.343221239,19.192936 1.87242478,20.7187638 3.74145133,20.7187638 Z" id="Shape"></path>
                </g>
            </g>
        </g>
    </g>
</svg>