<?xml version="1.0" encoding="UTF-8"?>
<svg width="256px" height="256px" viewBox="0 0 256 256" version="1.1" xmlns="http://www.w3.org/2000/svg" xmlns:xlink="http://www.w3.org/1999/xlink">
    <!-- Generator: Sketch 46.2 (44496) - http://www.bohemiancoding.com/sketch -->
    <title>bt-refresh</title>
    <desc>Created with Sketch.</desc>
    <defs></defs>
    <g id="F.O" stroke="none" stroke-width="1" fill="none" fill-rule="evenodd">
        <g id="Artboard" transform="translate(-189.000000, -88.000000)" fill-rule="nonzero" fill="#D70B52">
            <g id="bt-refresh" transform="translate(189.000000, 88.000000)">
                <path d="M128,0 C57.3045,0 0,57.3045 0,128 C0,198.6955 57.3045,256 128,256 C198.6955,256 256,198.6955 256,128 C256,57.3045 198.6955,0 128,0 Z M128,248 C61.7238889,248 8,194.276111 8,128 C8,61.7238889 61.7238889,8 128,8 C194.276111,8 248,61.7238889 248,128 C248,194.276111 194.276111,248 128,248 Z" id="Shape"></path>
                <path d="M177.2755,118.264263 C180.4865,134.162763 175.9005,151.287763 163.534,163.615263 C143.917,183.216763 112.0805,183.216763 92.448,163.615263 C72.8075,144.021263 72.815,112.271263 92.448,92.6862627 C111.995,73.1942627 143.839,73.3657627 163.245,92.4442627 L156.331,99.6397627 L188.1355,106.874263 L179.198,75.8662627 L172.752,82.5537627 C146.8925,57.2567627 107.5875,58.2332627 82.744,83.0067627 C57.752,107.944263 57.752,148.358763 82.744,173.287763 C107.744,198.233263 148.252,198.233263 173.244,173.287763 C187.369,159.225263 193.494,140.225263 191.6895,121.873763 L177.2755,118.264263 Z" id="Shape"></path>
            </g>
        </g>
    </g>
</svg>