<?xml version="1.0" encoding="UTF-8"?>
<svg width="50px" height="50px" viewBox="0 0 50 50" version="1.1" xmlns="http://www.w3.org/2000/svg" xmlns:xlink="http://www.w3.org/1999/xlink">
    <!-- Generator: Sketch 46.2 (44496) - http://www.bohemiancoding.com/sketch -->
    <title>ico_user</title>
    <desc>Created with Sketch.</desc>
    <defs></defs>
    <g id="Page-1" stroke="none" stroke-width="1" fill="none" fill-rule="evenodd">
        <g id="2-Création-d’un-compte" transform="translate(-1830.000000, -25.000000)">
            <g id="Head">
                <g id="user" transform="translate(1547.000000, 25.000000)">
                    <g id="ico_user" transform="translate(283.000000, 0.000000)">
                        <circle id="Oval-3" fill="#FFFFFF" cx="25" cy="25" r="25"></circle>
                        <path d="M35.6066406,29.3933594 C33.9728711,27.7596484 32.0282617,26.5502148 29.906582,25.8180859 C32.1789648,24.2529883 33.671875,21.6336719 33.671875,18.671875 C33.671875,13.8902148 29.7816602,10 25,10 C20.2183398,10 16.328125,13.8902148 16.328125,18.671875 C16.328125,21.6336719 17.8210352,24.2529883 20.0934766,25.8180859 C17.9717969,26.5502148 16.0271875,27.7596484 14.393418,29.3933594 C11.560293,32.226543 10,35.9933594 10,40 L12.34375,40 C12.34375,33.0213086 18.0213086,27.34375 25,27.34375 C31.9786914,27.34375 37.65625,33.0213086 37.65625,40 L40,40 C40,35.9933594 38.439707,32.226543 35.6066406,29.3933594 Z M25,25 C21.5106836,25 18.671875,22.16125 18.671875,18.671875 C18.671875,15.1825 21.5106836,12.34375 25,12.34375 C28.4893164,12.34375 31.328125,15.1825 31.328125,18.671875 C31.328125,22.16125 28.4893164,25 25,25 Z" id="Shape" fill="#252264" fill-rule="nonzero"></path>
                    </g>
                </g>
            </g>
        </g>
    </g>
</svg>