<?xml version="1.0" encoding="UTF-8"?>
<svg width="18px" height="16px" viewBox="0 0 18 16" version="1.1" xmlns="http://www.w3.org/2000/svg" xmlns:xlink="http://www.w3.org/1999/xlink">
    <!-- Generator: Sketch 46.2 (44496) - http://www.bohemiancoding.com/sketch -->
    <title>ico-edit</title>
    <desc>Created with Sketch.</desc>
    <defs></defs>
    <g id="Symbols" stroke="none" stroke-width="1" fill="none" fill-rule="evenodd">
        <g id="item-1" transform="translate(-206.000000, -12.000000)" fill="#D70B52">
            <g id="ico-edit">
                <path d="M218.56247,22.7812577 L219.562468,21.7812601 C219.645801,21.6979268 219.739551,21.6770938 219.843717,21.7187602 C219.947883,21.7604266 219.999967,21.8437599 219.999967,21.9687596 L219.999967,26.4999988 C219.999967,26.9166643 219.854133,27.2708305 219.562468,27.5624963 C219.270802,27.8541621 218.916636,27.9999952 218.49997,27.9999952 L207.499996,27.9999952 C207.083331,27.9999952 206.729165,27.8541621 206.437499,27.5624963 C206.145833,27.2708305 206,26.9166643 206,26.4999988 L206,15.500025 C206,15.0833595 206.145833,14.7291934 206.437499,14.4375276 C206.729165,14.1458618 207.083331,14.0000286 207.499996,14.0000286 L216.062476,14.0000286 C216.166642,14.0000286 216.239559,14.052112 216.281225,14.1562782 C216.322892,14.2604445 216.302059,14.3541943 216.218726,14.4375276 L215.218728,15.4375252 C215.177062,15.4791916 215.124978,15.500025 215.062478,15.500025 L207.499996,15.500025 L207.499996,26.4999988 L218.49997,26.4999988 L218.49997,22.9375073 C218.49997,22.8750075 218.520804,22.8229241 218.56247,22.7812577 Z M223.468708,16.4687727 L215.249978,24.6875031 L212.437485,25.0000024 C212.020819,25.0416688 211.666653,24.9166691 211.374987,24.6250033 C211.083321,24.3333375 210.958322,23.9791713 210.999988,23.5625058 L211.312487,20.7500125 L219.531218,12.5312821 C219.885383,12.1771164 220.317674,12.0000334 220.82809,12.0000334 C221.338505,12.0000334 221.770796,12.1771164 222.124962,12.5312821 L223.468708,13.8750289 C223.822874,14.2291946 223.999957,14.6614855 223.999957,15.1719008 C223.999957,15.6823161 223.822874,16.1146071 223.468708,16.4687727 Z M220.374966,17.4375204 L218.56247,15.6250247 L212.749984,21.4375109 L212.531234,23.468756 L214.56248,23.2500066 L220.374966,17.4375204 Z M222.406211,14.9375264 L221.062464,13.5937796 C220.999964,13.5312797 220.921839,13.5000298 220.82809,13.5000298 C220.73434,13.5000298 220.656215,13.5312797 220.593715,13.5937796 L219.624968,14.5625273 L221.437463,16.3750229 L222.406211,15.4062753 C222.468711,15.3437754 222.499961,15.2656506 222.499961,15.1719008 C222.499961,15.078151 222.468711,15.0000262 222.406211,14.9375264 Z"></path>
            </g>
        </g>
    </g>
</svg>