<?xml version="1.0" encoding="UTF-8"?>
<svg width="15px" height="17px" viewBox="0 0 15 17" version="1.1" xmlns="http://www.w3.org/2000/svg" xmlns:xlink="http://www.w3.org/1999/xlink">
    <!-- Generator: Sketch 46.2 (44496) - http://www.bohemiancoding.com/sketch -->
    <title>z-a</title>
    <desc>Created with Sketch.</desc>
    <defs></defs>
    <g id="B.O" stroke="none" stroke-width="1" fill="none" fill-rule="evenodd">
        <g id="B.O-Rubrique" transform="translate(-503.000000, -366.000000)" fill="#FFFFFF">
            <g id="Sites" transform="translate(290.000000, 285.000000)">
                <path d="M223.705357,94.0714286 L225.285714,94.0714286 L224.642857,92.125 L224.535714,91.7053571 C224.523809,91.6101186 224.517857,91.5505954 224.517857,91.5267857 L224.482143,91.5267857 L224.455357,91.7053571 C224.455357,91.7113096 224.444941,91.7648804 224.424107,91.8660714 C224.403274,91.9672624 224.380953,92.0535711 224.357143,92.125 L223.705357,94.0714286 Z M219.642857,94.1428571 C219.642857,94.2142861 219.613096,94.2857139 219.553571,94.3571429 L216.705357,97.2053571 C216.645833,97.2589288 216.577381,97.2857143 216.5,97.2857143 C216.428571,97.2857143 216.360119,97.2589288 216.294643,97.2053571 L213.4375,94.3482143 C213.348214,94.2529757 213.327381,94.1488101 213.375,94.0357143 C213.422619,93.9166661 213.511904,93.8571429 213.642857,93.8571429 L215.357143,93.8571429 L215.357143,81.5714286 C215.357143,81.4880948 215.383928,81.4196431 215.4375,81.3660714 C215.491072,81.3124997 215.559523,81.2857143 215.642857,81.2857143 L217.357143,81.2857143 C217.440477,81.2857143 217.508928,81.3124997 217.5625,81.3660714 C217.616072,81.4196431 217.642857,81.4880948 217.642857,81.5714286 L217.642857,93.8571429 L219.357143,93.8571429 C219.440477,93.8571429 219.508928,93.8839283 219.5625,93.9375 C219.616072,93.9910717 219.642857,94.0595234 219.642857,94.1428571 Z M227.901786,96.3392857 L227.901786,97.2857143 L225.330357,97.2857143 L225.330357,96.3392857 L226,96.3392857 L225.580357,95.0535714 L223.410714,95.0535714 L222.991071,96.3392857 L223.660714,96.3392857 L223.660714,97.2857143 L221.098214,97.2857143 L221.098214,96.3392857 L221.723214,96.3392857 L223.776786,90.4285714 L225.223214,90.4285714 L227.276786,96.3392857 L227.901786,96.3392857 Z M227.107143,86.0625 L227.107143,88.1428571 L221.892857,88.1428571 L221.892857,87.3392857 L225.1875,82.6160714 C225.258929,82.508928 225.321428,82.4285717 225.375,82.375 L225.473214,82.2946429 L225.473214,82.2678571 C225.461309,82.2678571 225.441964,82.2693452 225.415179,82.2723214 C225.388393,82.2752976 225.366072,82.2767857 225.348214,82.2767857 C225.276785,82.2946429 225.187501,82.3035714 225.080357,82.3035714 L223.008929,82.3035714 L223.008929,83.3303571 L221.9375,83.3303571 L221.9375,81.2857143 L227,81.2857143 L227,82.0803571 L223.705357,86.8125 C223.669643,86.8601193 223.607143,86.9374995 223.517857,87.0446429 L223.419643,87.1339286 L223.419643,87.1607143 L223.544643,87.1339286 C223.598215,87.1279762 223.687499,87.125 223.8125,87.125 L226.026786,87.125 L226.026786,86.0625 L227.107143,86.0625 Z" id="z-a"></path>
            </g>
        </g>
    </g>
</svg>