<?xml version="1.0" encoding="UTF-8"?>
<svg width="14px" height="16px" viewBox="0 0 14 16" version="1.1" xmlns="http://www.w3.org/2000/svg" xmlns:xlink="http://www.w3.org/1999/xlink">
    <!-- Generator: Sketch 46.2 (44496) - http://www.bohemiancoding.com/sketch -->
    <title>ico-del</title>
    <desc>Created with Sketch.</desc>
    <defs></defs>
    <g id="Symbols" stroke="none" stroke-width="1" fill="none" fill-rule="evenodd">
        <g id="item-1" transform="translate(-245.000000, -12.000000)" fill="#D70B52">
            <g id="ico-del">
                <path d="M250.999986,17.8750194 L250.999986,24.6250033 C250.999986,24.7291695 250.963527,24.8177113 250.890611,24.8906276 C250.817695,24.963544 250.729153,25.0000024 250.624987,25.0000024 L249.874988,25.0000024 C249.770822,25.0000024 249.68228,24.963544 249.609364,24.8906276 C249.536448,24.8177113 249.499989,24.7291695 249.499989,24.6250033 L249.499989,17.8750194 C249.499989,17.7708531 249.536448,17.6823113 249.609364,17.609395 C249.68228,17.5364787 249.770822,17.5000203 249.874988,17.5000203 L250.624987,17.5000203 C250.729153,17.5000203 250.817695,17.5364787 250.890611,17.609395 C250.963527,17.6823113 250.999986,17.7708531 250.999986,17.8750194 Z M253.37498,17.5000203 L254.124978,17.5000203 C254.229145,17.5000203 254.317686,17.5364787 254.390603,17.609395 C254.463519,17.6823113 254.499977,17.7708531 254.499977,17.8750194 L254.499977,24.6250033 C254.499977,24.7291695 254.463519,24.8177113 254.390603,24.8906276 C254.317686,24.963544 254.229145,25.0000024 254.124978,25.0000024 L253.37498,25.0000024 C253.270814,25.0000024 253.182272,24.963544 253.109356,24.8906276 C253.036439,24.8177113 252.999981,24.7291695 252.999981,24.6250033 L252.999981,17.8750194 C252.999981,17.7708531 253.036439,17.6823113 253.109356,17.609395 C253.182272,17.5364787 253.270814,17.5000203 253.37498,17.5000203 Z M258.249968,14.5000274 C258.458301,14.5000274 258.635384,14.5729438 258.781217,14.7187769 C258.92705,14.86461 258.999967,15.0416926 258.999967,15.2500256 L258.999967,15.6250247 C258.999967,15.729191 258.963508,15.8177328 258.890592,15.8906491 C258.817676,15.9635654 258.729134,16.0000238 258.624968,16.0000238 L257.999969,16.0000238 L257.999969,26.4999988 C257.999969,26.9166643 257.854136,27.2708305 257.56247,27.5624963 C257.270804,27.8541621 256.916638,27.9999952 256.499973,27.9999952 L247.499994,27.9999952 C247.083329,27.9999952 246.729162,27.8541621 246.437497,27.5624963 C246.145831,27.2708305 245.999998,26.9166643 245.999998,26.4999988 L245.999998,16.0000238 L245.374999,16.0000238 C245.270833,16.0000238 245.182291,15.9635654 245.109375,15.8906491 C245.036458,15.8177328 245,15.729191 245,15.6250247 L245,15.2500256 C245,15.0416926 245.072916,14.86461 245.218749,14.7187769 C245.364583,14.5729438 245.541665,14.5000274 245.749998,14.5000274 L248.062493,14.5000274 L249.12499,12.7187817 C249.270823,12.4896157 249.458323,12.3125326 249.687489,12.1875329 C249.916655,12.0625332 250.166654,12.0000334 250.437487,12.0000334 L253.56248,12.0000334 C253.833312,12.0000334 254.083312,12.0625332 254.312478,12.1875329 C254.541644,12.3125326 254.729143,12.4896157 254.874976,12.7187817 L255.937474,14.5000274 L258.249968,14.5000274 Z M249.812489,14.5000274 L254.187478,14.5000274 L253.624979,13.5937796 C253.583313,13.5312797 253.53123,13.5000298 253.46873,13.5000298 L250.531237,13.5000298 C250.468737,13.5000298 250.416654,13.5312797 250.374987,13.5937796 L249.812489,14.5000274 Z M256.499973,16.0000238 L247.499994,16.0000238 L247.499994,26.3124993 C247.499994,26.3541657 247.520827,26.3958325 247.562494,26.437499 C247.60416,26.4791654 247.645827,26.4999988 247.687494,26.4999988 L256.312473,26.4999988 C256.354139,26.4999988 256.395806,26.4791654 256.437473,26.437499 C256.479139,26.3958325 256.499973,26.3541657 256.499973,26.3124993 L256.499973,16.0000238 Z"></path>
            </g>
        </g>
    </g>
</svg>