<?xml version="1.0" encoding="UTF-8"?>
<svg width="16px" height="16px" viewBox="0 0 16 16" version="1.1" xmlns="http://www.w3.org/2000/svg" xmlns:xlink="http://www.w3.org/1999/xlink">
    <!-- Generator: Sketch 46.2 (44496) - http://www.bohemiancoding.com/sketch -->
    <title>ico_cancel</title>
    <desc>Created with Sketch.</desc>
    <defs></defs>
    <g id="Symbols" stroke="none" stroke-width="1" fill="none" fill-rule="evenodd">
        <g id="item-1" transform="translate(-163.000000, -12.000000)" fill="#E94234">
            <path d="M171,12 C172.44086,12 173.774194,12.3602152 175,13.0806452 C176.225806,13.8010751 177.198925,14.7741935 177.919355,16 C178.639785,17.2258065 179,18.5591396 179,20 C179,21.4408604 178.639785,22.7741935 177.919355,24 C177.198925,25.2258065 176.225806,26.1989249 175,26.9193548 C173.774194,27.6397848 172.44086,28 171,28 C169.55914,28 168.225806,27.6397848 167,26.9193548 C165.774194,26.1989249 164.801075,25.2258065 164.080645,24 C163.360215,22.7741935 163,21.4408604 163,20 C163,18.5591396 163.360215,17.2258065 164.080645,16 C164.801075,14.7741935 165.774194,13.8010751 167,13.0806452 C168.225806,12.3602152 169.55914,12 171,12 Z M171,26.4516129 C172.16129,26.4516129 173.236559,26.1612903 174.225806,25.5806452 C175.215054,25 176,24.2150539 176.580645,23.2258065 C177.16129,22.236559 177.451613,21.1612903 177.451613,20 C177.451613,18.8387097 177.16129,17.763441 176.580645,16.7741935 C176,15.7849461 175.215054,15 174.225806,14.4193548 C173.236559,13.8387097 172.16129,13.5483871 171,13.5483871 C169.83871,13.5483871 168.763441,13.8387097 167.774194,14.4193548 C166.784946,15 166,15.7849461 165.419355,16.7741935 C164.83871,17.763441 164.548387,18.8387097 164.548387,20 C164.548387,21.1612903 164.83871,22.236559 165.419355,23.2258065 C166,24.2150539 166.784946,25 167.774194,25.5806452 C168.763441,26.1612903 169.83871,26.4516129 171,26.4516129 Z M172.290323,20 L174.290323,22 C174.354839,22.0860217 174.387097,22.1827959 174.387097,22.2903226 C174.387097,22.3978493 174.354839,22.483871 174.290323,22.5483871 L173.548387,23.2903226 C173.483871,23.3548387 173.397849,23.3870968 173.290323,23.3870968 C173.182796,23.3870968 173.086022,23.3548387 173,23.2903226 L171,21.2903226 L169,23.2903226 C168.913978,23.3548387 168.817204,23.3870968 168.709677,23.3870968 C168.602151,23.3870968 168.516129,23.3548387 168.451613,23.2903226 L167.709677,22.5483871 C167.645161,22.483871 167.612903,22.3978493 167.612903,22.2903226 C167.612903,22.1827959 167.645161,22.0860217 167.709677,22 L169.709677,20 L167.709677,18 C167.645161,17.9139783 167.612903,17.8172041 167.612903,17.7096774 C167.612903,17.6021507 167.645161,17.516129 167.709677,17.4516129 L168.451613,16.7096774 C168.516129,16.6451613 168.602151,16.6129032 168.709677,16.6129032 C168.817204,16.6129032 168.913978,16.6451613 169,16.7096774 L171,18.7096774 L173,16.7096774 C173.086022,16.6451613 173.182796,16.6129032 173.290323,16.6129032 C173.397849,16.6129032 173.483871,16.6451613 173.548387,16.7096774 L174.290323,17.4516129 C174.354839,17.516129 174.387097,17.6021507 174.387097,17.7096774 C174.387097,17.8172041 174.354839,17.9139783 174.290323,18 L172.290323,20 Z" id="ico_cancel"></path>
        </g>
    </g>
</svg>