<?xml version="1.0" encoding="UTF-8"?>
<svg width="24px" height="40px" viewBox="0 0 24 40" version="1.1" xmlns="http://www.w3.org/2000/svg" xmlns:xlink="http://www.w3.org/1999/xlink">
    <!-- Generator: Sketch 46.2 (44496) - http://www.bohemiancoding.com/sketch -->
    <title>ico-cam</title>
    <desc>Created with Sketch.</desc>
    <defs></defs>
    <g id="Page-1" stroke="none" stroke-width="1" fill="none" fill-rule="evenodd">
        <g id="2-Création-d’un-compte" transform="translate(-1468.000000, -1000.000000)" fill-rule="nonzero" fill="#FFFFFF">
            <g id="footer" transform="translate(0.000000, 980.000000)">
                <g id="visiio" transform="translate(1440.000000, 0.000000)">
                    <g id="ico-cam" transform="translate(28.000000, 20.000000)">
                        <path d="M24,16.796875 L24,12.109375 C24,5.43226563 18.6168,0 12,0 C5.3832,0 0,5.43226563 0,12.109375 L0,16.796875 C0,22.2517969 3.59310968,26.8750781 8.51612903,28.3851563 L8.51612903,32.293125 C5.43979355,32.8484375 3.09677419,35.5664844 3.09677419,38.828125 L3.09677419,40 L20.9032258,40 L20.9032258,38.828125 C20.9032258,35.5664844 18.5602065,32.8485156 15.483871,32.293125 L15.483871,28.3851562 C20.4068903,26.8750781 24,22.2517969 24,16.796875 Z M18.4196903,37.65625 L5.58030968,37.65625 C6.08701935,35.8546094 7.73187097,34.53125 9.67741935,34.53125 L14.3225806,34.53125 C16.268129,34.53125 17.9129806,35.8546094 18.4196903,37.65625 Z M10.8387097,32.1875 L10.8387097,28.849375 C11.2210065,28.8865625 11.6082581,28.90625 12,28.90625 C12.3917419,28.90625 12.779071,28.8865625 13.1612903,28.849375 L13.1612903,32.1875 L10.8387097,32.1875 Z M12,26.5625 C6.66387097,26.5625 2.32258065,22.1816406 2.32258065,16.796875 L2.32258065,12.109375 C2.32258065,6.72460938 6.66387097,2.34375 12,2.34375 C17.336129,2.34375 21.6774194,6.72460938 21.6774194,12.109375 L21.6774194,16.796875 C21.6774194,22.1816406 17.336129,26.5625 12,26.5625 Z" id="Shape"></path>
                        <path d="M12,5 C7.5888,5 4,8.5888 4,13 C4,17.4112 7.5888,21 12,21 C16.4112,21 20,17.4112 20,13 C20,8.5888 16.4112,5 12,5 Z M12,18.7142857 C8.84914286,18.7142857 6.28571429,16.1508571 6.28571429,13 C6.28571429,9.84914286 8.84914286,7.28571429 12,7.28571429 C15.1508571,7.28571429 17.7142857,9.84914286 17.7142857,13 C17.7142857,16.1508571 15.1508571,18.7142857 12,18.7142857 Z" id="Shape"></path>
                        <path d="M7,8 L7,10.5862069 C8.06475862,10.5862069 8.93103448,11.6690517 8.93103448,13 L11,13 C11,10.2430172 9.20558621,8 7,8 Z" id="Shape" transform="translate(9.000000, 10.500000) rotate(-90.000000) translate(-9.000000, -10.500000) "></path>
                        <circle id="Oval" cx="12" cy="13" r="1"></circle>
                        <circle id="Oval" cx="12" cy="24" r="1"></circle>
                    </g>
                </g>
            </g>
        </g>
    </g>
</svg>