<?xml version="1.0" encoding="UTF-8"?>
<svg width="15px" height="17px" viewBox="0 0 15 17" version="1.1" xmlns="http://www.w3.org/2000/svg" xmlns:xlink="http://www.w3.org/1999/xlink">
    <!-- Generator: Sketch 46.2 (44496) - http://www.bohemiancoding.com/sketch -->
    <title>a-z</title>
    <desc>Created with Sketch.</desc>
    <defs></defs>
    <g id="B.O" stroke="none" stroke-width="1" fill="none" fill-rule="evenodd">
        <g id="B.O-Rubrique" transform="translate(-503.000000, -366.000000)" fill="#FFFFFF">
            <g id="Sites" transform="translate(290.000000, 285.000000)">
                <path d="M223.705357,84.9285714 L225.285714,84.9285714 L224.642857,82.9821429 L224.535714,82.5625 C224.523809,82.4672614 224.517857,82.4077382 224.517857,82.3839286 L224.482143,82.3839286 L224.455357,82.5625 C224.455357,82.5684524 224.444941,82.6220233 224.424107,82.7232143 C224.403274,82.8244053 224.380953,82.9107139 224.357143,82.9821429 L223.705357,84.9285714 Z M219.642857,94.1428571 C219.642857,94.2142861 219.613096,94.2857139 219.553571,94.3571429 L216.705357,97.2053571 C216.645833,97.2589288 216.577381,97.2857143 216.5,97.2857143 C216.428571,97.2857143 216.360119,97.2589288 216.294643,97.2053571 L213.4375,94.3482143 C213.348214,94.2529757 213.327381,94.1488101 213.375,94.0357143 C213.422619,93.9166661 213.511904,93.8571429 213.642857,93.8571429 L215.357143,93.8571429 L215.357143,81.5714286 C215.357143,81.4880948 215.383928,81.4196431 215.4375,81.3660714 C215.491072,81.3124997 215.559523,81.2857143 215.642857,81.2857143 L217.357143,81.2857143 C217.440477,81.2857143 217.508928,81.3124997 217.5625,81.3660714 C217.616072,81.4196431 217.642857,81.4880948 217.642857,81.5714286 L217.642857,93.8571429 L219.357143,93.8571429 C219.440477,93.8571429 219.508928,93.8839283 219.5625,93.9375 C219.616072,93.9910717 219.642857,94.0595234 219.642857,94.1428571 Z M227.107143,95.2053571 L227.107143,97.2857143 L221.892857,97.2857143 L221.892857,96.4821429 L225.1875,91.7589286 C225.258929,91.6517852 225.321428,91.5714288 225.375,91.5178571 L225.473214,91.4375 L225.473214,91.4107143 C225.461309,91.4107143 225.441964,91.4122024 225.415179,91.4151786 C225.388393,91.4181548 225.366072,91.4196429 225.348214,91.4196429 C225.276785,91.4375001 225.187501,91.4464286 225.080357,91.4464286 L223.008929,91.4464286 L223.008929,92.4732143 L221.9375,92.4732143 L221.9375,90.4285714 L227,90.4285714 L227,91.2232143 L223.705357,95.9553571 C223.669643,96.0029764 223.607143,96.0803566 223.517857,96.1875 L223.419643,96.2857143 L223.419643,96.3035714 L223.544643,96.2857143 C223.598215,96.2738095 223.687499,96.2678571 223.8125,96.2678571 L226.026786,96.2678571 L226.026786,95.2053571 L227.107143,95.2053571 Z M227.901786,87.1964286 L227.901786,88.1428571 L225.330357,88.1428571 L225.330357,87.1964286 L226,87.1964286 L225.580357,85.9107143 L223.410714,85.9107143 L222.991071,87.1964286 L223.660714,87.1964286 L223.660714,88.1428571 L221.098214,88.1428571 L221.098214,87.1964286 L221.723214,87.1964286 L223.776786,81.2857143 L225.223214,81.2857143 L227.276786,87.1964286 L227.901786,87.1964286 Z" id="a-z"></path>
            </g>
        </g>
    </g>
</svg>