<?xml version="1.0" encoding="UTF-8"?>
<svg width="37px" height="42px" viewBox="0 0 37 42" version="1.1" xmlns="http://www.w3.org/2000/svg" xmlns:xlink="http://www.w3.org/1999/xlink">
    <!-- Generator: Sketch 46.2 (44496) - http://www.bohemiancoding.com/sketch -->
    <title>ico_refresh</title>
    <desc>Created with Sketch.</desc>
    <defs></defs>
    <g id="F.O" stroke="none" stroke-width="1" fill="none" fill-rule="evenodd">
        <g id="1-Home-skin-2" transform="translate(-1342.000000, -999.000000)" stroke="#FFFFFF" stroke-width="1.2" fill="#FFFFFF" fill-rule="nonzero">
            <g id="footer" transform="translate(0.000000, 980.000000)">
                <g id="visiio-copy" transform="translate(1320.000000, 0.000000)">
                    <g id="ico_refresh" transform="translate(23.000000, 20.000000)">
                        <path d="M34.9379405,17.6715625 C34.9379405,7.92742188 27.1153634,0 17.5000771,0 C7.88479075,0 0.0620594714,7.92742188 0.0620594714,17.6715625 C0.0620594714,18.2503906 0.525154185,18.7196875 1.0963326,18.7196875 C1.66751101,18.7196875 2.13060573,18.2503125 2.13060573,17.6715625 C2.13060573,9.08328125 9.02529736,2.09632812 17.5,2.09632812 C25.9747026,2.09632812 32.8693943,9.08335938 32.8693943,17.6715625 C32.8693943,26.2596875 25.9747026,33.2467187 17.5,33.2467187 L15.7055947,33.2467187 L18.2713877,30.3361719 C18.6519934,29.9045313 18.6150661,29.241875 18.18913,28.8561719 C17.7631938,28.4704687 17.1092181,28.5079687 16.7286894,28.9396094 L13.0609361,33.1001562 C12.4605396,33.78125 12.4605396,34.8084375 13.0609361,35.4895312 L16.7286894,39.6500781 C16.9330617,39.8819531 17.2160683,39.9999219 17.5003855,39.9999219 C17.7456167,39.9999219 17.9918502,39.9119531 18.18913,39.7335156 C18.6151432,39.3478125 18.6519934,38.6851562 18.2713877,38.2535156 L15.7055947,35.3429687 L17.5,35.3429687 C27.1153634,35.3429687 34.9379405,27.4155469 34.9379405,17.6715625 Z" id="Shape"></path>
                    </g>
                </g>
            </g>
        </g>
    </g>
</svg>